<svg xmlns="http://www.w3.org/2000/svg" viewBox="0 0 512 512"><path d="M101.095 146.557V73.401c0-6.196-5.023-11.219-11.219-11.219H52.493c-6.196 0-11.219 5.023-11.219 11.219v73.156" fill="#e5e9ea"/><path d="M68.441 146.557V62.182H52.493c-6.196 0-11.219 5.023-11.219 11.219v73.156" fill="#d1d1d1"/><path d="M512 159.89v273.711c0 18.766-15.214 33.98-33.98 33.98H33.98c-18.766 0-33.98-15.214-33.98-33.98V159.89c0-18.766 15.214-33.98 33.98-33.98h67.19c14.472 0 27.366-9.164 32.11-22.841l12.403-35.798a33.984 33.984 0 0132.11-22.852h198.214c14.472 0 27.355 9.174 32.099 22.852l12.413 35.798a33.97 33.97 0 0032.099 22.841h25.401c18.767 0 33.981 15.214 33.981 33.98z" fill="#fcb65f"/><path d="M60.625 467.581H33.98c-18.766 0-33.98-15.214-33.98-33.98V159.89c0-18.766 15.214-33.98 33.98-33.98h24.534v.063c-17.784 1.097-31.869 15.862-31.869 33.917v273.711c0 18.767 15.214 33.98 33.98 33.98zM204.437 44.419a33.985 33.985 0 00-32.11 22.852l-12.403 35.798c-4.744 13.678-17.638 22.841-32.11 22.841h-22.8v-.219c12.873-1.463 23.949-10.167 28.264-22.622l12.403-35.798a33.984 33.984 0 0132.11-22.852h26.646z" fill="#e29a4b"/><path d="M512 218.384v215.218c0 18.766-15.214 33.98-33.98 33.98H33.98c-18.766 0-33.98-15.214-33.98-33.98V218.384h512z" fill="#53bce9"/><path d="M60.625 467.581H33.98c-18.766 0-33.98-15.214-33.98-33.98V218.384h26.645v215.218c0 18.766 15.214 33.979 33.98 33.979z" fill="#36a6ce"/><circle cx="256" cy="294.139" r="141.573" fill="#e5e9ea"/><path d="M356.101 294.139c0 29.477-12.737 55.975-33.019 74.303C305.33 384.481 281.819 394.25 256 394.25c-25.809 0-49.33-9.77-67.082-25.809-20.281-18.317-33.029-44.826-33.029-74.303s12.748-55.986 33.029-74.292c17.753-16.05 41.273-25.809 67.082-25.809 25.819 0 49.33 9.77 67.082 25.809 20.282 18.318 33.019 44.816 33.019 74.293z" fill="#566368"/><path d="M326.777 223.354c20.843 20.843 30.574 48.587 29.192 75.888-27.301 1.381-55.045-8.349-75.888-29.192-20.843-20.843-30.574-48.587-29.185-75.88 27.293-1.389 55.038 8.342 75.881 29.184zm-94.869 94.87c20.843 20.843 30.574 48.587 29.192 75.888-27.294 1.389-55.053-8.341-75.895-29.185-20.843-20.843-30.574-48.602-29.178-75.888 27.294-1.39 55.038 8.341 75.881 29.185z" fill="#6f7b7f"/><g fill="#435054"><path d="M255.997 402.082c-59.519 0-107.942-48.423-107.942-107.942s48.423-107.942 107.942-107.942S363.939 234.62 363.939 294.14s-48.423 107.942-107.942 107.942zm0-200.211c-50.877 0-92.269 41.392-92.269 92.269s41.392 92.269 92.269 92.269 92.269-41.392 92.269-92.269-41.392-92.269-92.269-92.269z"/><path d="M255.997 253.955c-22.158 0-40.185 18.027-40.185 40.186s18.027 40.185 40.185 40.185 40.185-18.027 40.185-40.185-18.027-40.186-40.185-40.186z"/></g><path d="M306.857 118.078h61.583c8.096 0 14.66-6.563 14.66-14.66V87.286c0-8.096-6.563-14.66-14.66-14.66h-61.583c-8.096 0-14.66 6.563-14.66 14.66v16.132c0 8.096 6.564 14.66 14.66 14.66z" fill="#e5e9ea"/><path d="M368.44 125.914h-61.583c-12.405 0-22.497-10.092-22.497-22.497v-16.13c0-12.405 10.092-22.497 22.497-22.497h61.583c12.405 0 22.497 10.092 22.497 22.497v16.131c-.001 12.405-10.093 22.496-22.497 22.496zm-61.583-45.451a6.83 6.83 0 00-6.823 6.823v16.131a6.83 6.83 0 006.823 6.823h61.583a6.83 6.83 0 006.823-6.823v-16.13a6.83 6.83 0 00-6.823-6.823l-61.583-.001z" fill="#e29a4b"/><circle cx="97.332" cy="410.237" r="28.338" fill="#566368"/></svg>