<svg xmlns="http://www.w3.org/2000/svg" viewBox="0 0 410.309 410.309"><path d="M382.955 58.96c16.936 2.176 29.014 17.507 27.167 34.482L386.09 306.079c-1.848 16.923-17.066 29.144-33.989 27.295-.339-.037-.677-.08-1.015-.128h-1.567V138.372c0-17.312-14.035-31.347-31.347-31.347H56.947l5.747-52.245c2.179-17.223 17.742-29.535 35.004-27.69l285.257 31.87z" fill="#00acea"/><path d="M349.518 333.246v18.808c0 17.312-14.035 31.347-31.347 31.347H31.347C14.035 383.401 0 369.366 0 352.054v-43.886l86.204-62.694c13.668-10.37 32.794-9.491 45.453 2.09l57.469 50.155a37.094 37.094 0 0042.841 3.657l117.551-68.963v100.833z" fill="#00ceb4"/><path d="M349.518 138.372v94.041l-117.551 68.963a37.094 37.094 0 01-42.841-3.657l-57.469-50.155c-12.659-11.58-31.785-12.46-45.453-2.09L0 308.168V138.372c0-17.312 14.035-31.347 31.347-31.347h286.824c17.313.001 31.347 14.035 31.347 31.347z" fill="#00efd1"/><circle cx="208.98" cy="192.707" r="33.437" fill="#d4e1f4"/></svg>