<svg width="101" height="92" fill="none" xmlns="http://www.w3.org/2000/svg"><path d="M52.2 41l-9.5-9.45-12.3-12.2-7.75-7.75-9.1-9.15a5.02 5.02 0 00-7.1 7.1l6.9 6.85 7.3 7.3L31.8 34.9l7.75 7.7 13.7 13.7 13.95 14 19.25 19.25a4.998 4.998 0 007.1 0 4.998 4.998 0 000-7.1L52.2 41zm46.4-15.35A69.65 69.65 0 0050 6a70.5 70.5 0 00-22.2 3.65l8.1 8.1a59.45 59.45 0 0155.8 15 5 5 0 003.45 1.4 5 5 0 003.6-1.55 5 5 0 00-.15-6.95zm-89.5-6.4a71.594 71.594 0 00-7.7 6.4 5 5 0 006.9 7.2 65.447 65.447 0 018-6.45l-7.2-7.15zM75 51.7a5 5 0 003.55 1.5 5 5 0 003.6-8.45A45.003 45.003 0 0050 31h-.8l11.75 11.75A35 35 0 0175 51.7zM27.15 37.3a43.998 43.998 0 00-9.5 7.45A5.058 5.058 0 1025 51.7a36.498 36.498 0 0110-7.05l-7.85-7.35zm5.5 25.7a5.004 5.004 0 106.95 7.2 15.3 15.3 0 0119.2-1.25l-12.6-12.6A25 25 0 0032.65 63z" fill="#C7C7C7"/></svg>